<?xml version="1.0" encoding="utf-8"?>
<!-- Generator: Adobe Illustrator 27.8.1, SVG Export Plug-In . SVG Version: 6.00 Build 0)  -->
<svg version="1.1" id="Livello_1" xmlns="http://www.w3.org/2000/svg" xmlns:xlink="http://www.w3.org/1999/xlink" x="0px" y="0px"
	 viewBox="0 0 539.65 109.71" style="enable-background:new 0 0 539.65 109.71;" xml:space="preserve">
<style type="text/css">
	.st0{fill:#8CC547;}
	.st1{fill:#FFFFFF;}
	.st2{fill:#2074B9;}
	.st3{fill:#EB2730;}
</style>
<g>
	<rect x="162.32" class="st0" width="377.33" height="109.71"/>
	<path d="M4.96,80.81c-1.64,0-2.74-0.66-3.38-1.22C0.86,78.96,0,77.81,0,75.89V26.43c0-1.71,0.71-2.84,1.3-3.49
		c0.64-0.7,1.8-1.54,3.65-1.54H40.1c1.87,0,3.04,0.84,3.7,1.55c0.61,0.66,1.33,1.8,1.33,3.55v8.76c0,1.16-0.39,2.27-1.14,3.23
		c-0.93,1.2-2.33,1.86-3.93,1.86H20.51v1.98h14.31c1.17,0,2.21,0.32,3.1,0.96c0.7,0.5,1.86,1.66,1.86,3.83v7.65
		c0,1.14-0.41,2.23-1.2,3.15c-0.91,1.07-2.23,1.66-3.73,1.66H20.51v2.27h20.4c2.94,0,5,2.07,5,5.03v8.9c0,0.75-0.2,1.49-0.58,2.14
		c-0.7,1.81-2.39,2.88-4.55,2.88H4.96z"/>
	<path class="st1" d="M4.96,79.54c-1.25,0-2.07-0.49-2.53-0.9c-0.52-0.46-1.15-1.31-1.15-2.75V26.43c0-1.3,0.52-2.14,0.97-2.62
		c0.47-0.52,1.33-1.13,2.72-1.13H40.1c1.41,0,2.28,0.62,2.76,1.14c0.45,0.49,0.99,1.35,0.99,2.68v8.76c0,0.87-0.3,1.72-0.87,2.45
		c-0.69,0.88-1.72,1.37-2.92,1.37H19.24v4.53h15.59c0.9,0,1.69,0.24,2.36,0.72c0.5,0.36,1.33,1.2,1.33,2.79v7.65
		c0,0.83-0.31,1.64-0.89,2.33c-0.66,0.78-1.64,1.21-2.76,1.21H19.24v4.82h21.68c2.23,0,3.72,1.51,3.72,3.75v8.9
		c0,0.56-0.16,1.11-0.46,1.59c-0.4,1.14-1.44,2.16-3.4,2.16H4.96z"/>
	<path d="M71.91,81.63c-3.68,0-7.13-0.71-10.26-2.1c-3.11-1.38-5.83-3.31-8.08-5.73c-2.23-2.4-4-5.25-5.25-8.48
		c-1.25-3.21-1.88-6.7-1.88-10.37c0-3.69,0.63-7.19,1.88-10.39c1.25-3.21,3.02-6.06,5.25-8.45c2.26-2.42,4.98-4.34,8.09-5.72
		c3.13-1.38,6.57-2.08,10.25-2.08c1.52,0,2.96,0.14,4.25,0.41c1.21,0.25,2.35,0.62,3.4,1.09v-8.08c0-1.58,0.53-3.03,1.55-4.17
		c0.78-0.88,2.21-1.93,4.62-1.93h7.97c0.72,0,1.45,0.14,2.18,0.41c0.7,0.27,1.34,0.64,1.91,1.12c0.62,0.52,1.13,1.14,1.51,1.86
		c0.44,0.83,0.67,1.74,0.67,2.71v52.96c0,3.72-2.46,6.13-6.27,6.13h-6.94c-0.97,0-1.79-0.16-2.51-0.48c-0.76-0.34-1.4-0.85-1.92-1.5
		c-0.1-0.13-0.2-0.27-0.3-0.41c-0.64,0.43-1.3,0.81-1.99,1.17c-1.15,0.6-2.41,1.09-3.73,1.46C74.93,81.43,73.44,81.63,71.91,81.63z
		 M72.83,47.05c-1.03,0-1.93,0.19-2.73,0.57c-0.84,0.4-1.54,0.93-2.13,1.61c-0.62,0.71-1.1,1.56-1.44,2.52
		c-0.35,1-0.53,2.07-0.53,3.19c0,1.16,0.18,2.25,0.53,3.23c0.34,0.94,0.79,1.72,1.39,2.39c0.59,0.65,1.29,1.16,2.13,1.54
		c0.81,0.37,1.75,0.56,2.78,0.56c1.06,0,2.07-0.19,2.99-0.56c0.92-0.38,1.74-0.9,2.41-1.55c0.69-0.66,1.25-1.46,1.67-2.37
		c0.41-0.88,0.64-1.84,0.7-2.87l0-0.38c0-1.06-0.2-2.07-0.59-3.02c-0.4-0.97-0.96-1.82-1.66-2.55c-0.69-0.72-1.53-1.29-2.47-1.72
		C74.94,47.25,73.94,47.05,72.83,47.05z"/>
	<path class="st1" d="M71.91,80.35c-3.5,0-6.78-0.67-9.74-1.99c-2.95-1.31-5.53-3.14-7.67-5.43c-2.12-2.28-3.81-4.99-5-8.07
		c-1.19-3.07-1.79-6.4-1.79-9.91c0-3.53,0.6-6.87,1.79-9.93c1.19-3.06,2.87-5.77,5-8.05c2.14-2.29,4.72-4.12,7.68-5.42
		c2.96-1.31,6.24-1.97,9.73-1.97c1.44,0,2.78,0.13,3.99,0.38c1.24,0.26,2.39,0.64,3.43,1.14c0.52,0.25,1.02,0.53,1.51,0.83V21.72
		c0-1.27,0.42-2.42,1.23-3.32c0.61-0.68,1.73-1.5,3.66-1.5h7.97c0.56,0,1.14,0.11,1.73,0.33c0.57,0.22,1.09,0.52,1.55,0.9
		c0.49,0.41,0.9,0.91,1.2,1.48c0.34,0.64,0.52,1.35,0.52,2.1v52.96c0,2.99-1.91,4.85-5,4.85h-6.94c-0.79,0-1.43-0.12-1.98-0.37
		c-0.57-0.26-1.06-0.64-1.44-1.13c-0.3-0.38-0.55-0.83-0.77-1.35c-0.02-0.05-0.04-0.11-0.07-0.16c-0.02,0.01-0.04,0.03-0.06,0.04
		c-0.91,0.7-1.91,1.34-2.97,1.88c-1.08,0.56-2.25,1.02-3.49,1.36C74.69,80.17,73.33,80.35,71.91,80.35z M72.83,45.78
		c-1.23,0-2.3,0.23-3.28,0.7c-1.01,0.48-1.84,1.11-2.55,1.93c-0.72,0.83-1.28,1.82-1.68,2.93c-0.4,1.13-0.6,2.35-0.6,3.61
		c0,1.31,0.2,2.54,0.6,3.66c0.39,1.1,0.93,2.02,1.65,2.81c0.71,0.78,1.54,1.39,2.55,1.85c0.98,0.45,2.09,0.68,3.31,0.68
		c1.23,0,2.39-0.22,3.47-0.66c1.08-0.44,2.02-1.05,2.81-1.81c0.8-0.77,1.45-1.69,1.94-2.75c0.48-1.03,0.75-2.15,0.81-3.34v-0.44
		c0-1.22-0.23-2.41-0.69-3.51c-0.46-1.12-1.11-2.11-1.92-2.95c-0.81-0.84-1.78-1.51-2.87-2C75.29,46.01,74.13,45.78,72.83,45.78z"/>
	<path d="M124.23,81.52c-3.21,0-6.13-0.65-8.68-1.92c-2.51-1.25-4.67-3-6.4-5.18c-1.69-2.12-2.98-4.62-3.83-7.41
		c-0.83-2.71-1.25-5.62-1.25-8.66v-23.2c0-1.72,0.47-3.14,1.39-4.23c0.73-0.86,2.1-1.9,4.46-1.9h8.18c1.91,0,3.34,0.46,4.38,1.4
		c1.13,1.03,1.68,2.51,1.68,4.52v23.09c0,0.56,0.1,1.06,0.31,1.55c0.23,0.54,0.53,1,0.92,1.41c0.36,0.38,0.77,0.67,1.25,0.89
		c0.45,0.21,0.9,0.3,1.41,0.3c0.53,0,1.15-0.1,1.83-0.29c0.62-0.18,1.2-0.46,1.73-0.83c0.46-0.33,0.85-0.75,1.17-1.29
		c0.25-0.41,0.37-0.95,0.37-1.66V35.04c0-0.82,0.15-1.63,0.46-2.42c0.4-1.05,1.05-1.89,1.93-2.5l0.13-0.09
		c0.62-0.38,1.22-0.64,1.81-0.8c0.55-0.14,1.16-0.22,1.8-0.22h8.01c2.01,0,3.6,0.63,4.72,1.86c0.71,0.78,1.55,2.16,1.55,4.27v39.64
		c0,1.01-0.23,1.96-0.7,2.83c-0.18,0.35-0.4,0.67-0.64,0.96l0.05,0.08l-0.84,0.75c-0.75,0.63-1.58,1.05-2.49,1.23
		c-0.56,0.12-1.12,0.18-1.66,0.18h-5.35c-0.96,0-1.84-0.2-2.63-0.59c-0.73-0.36-1.36-0.87-1.88-1.5c-0.24-0.3-0.46-0.61-0.65-0.95
		c-0.48,0.33-0.99,0.64-1.52,0.94c-1.45,0.81-3.11,1.49-4.94,2C128.45,81.25,126.4,81.52,124.23,81.52z"/>
	<path class="st1" d="M124.23,80.24c-3.01,0-5.74-0.6-8.11-1.78c-2.35-1.17-4.36-2.8-5.97-4.83c-1.59-2-2.8-4.35-3.61-6.99
		c-0.79-2.58-1.19-5.37-1.19-8.29v-23.2c0-1.41,0.37-2.56,1.09-3.41c0.56-0.66,1.61-1.44,3.48-1.44h8.18c1.58,0,2.73,0.35,3.52,1.07
		c0.85,0.77,1.26,1.94,1.26,3.58v23.09c0,0.73,0.14,1.41,0.41,2.05c0.29,0.68,0.67,1.27,1.17,1.79c0.47,0.5,1.02,0.88,1.65,1.17
		c0.61,0.28,1.25,0.41,1.94,0.41c0.65,0,1.38-0.12,2.18-0.34c0.76-0.22,1.47-0.56,2.12-1.02c0.61-0.43,1.11-0.98,1.53-1.68
		c0.37-0.62,0.55-1.37,0.55-2.31V35.04c0-0.66,0.12-1.32,0.37-1.97c0.31-0.8,0.8-1.45,1.46-1.91l0.1-0.06
		c0.48-0.3,0.97-0.51,1.44-0.63c0.45-0.12,0.94-0.18,1.48-0.18h8.01c1.64,0,2.91,0.49,3.77,1.44c0.56,0.62,1.22,1.71,1.22,3.41
		v39.64c0,0.8-0.18,1.55-0.55,2.24c-0.29,0.55-0.67,1.01-1.14,1.38l0.02,0.02c-0.58,0.49-1.23,0.81-1.92,0.96
		c-0.48,0.1-0.95,0.15-1.4,0.15h-5.35c-0.76,0-1.45-0.15-2.05-0.46c-0.57-0.28-1.06-0.68-1.47-1.17c-0.34-0.42-0.62-0.88-0.84-1.39
		c-0.1-0.24-0.19-0.48-0.28-0.73c-0.78,0.65-1.67,1.25-2.66,1.81c-1.36,0.76-2.93,1.4-4.66,1.89
		C128.22,79.99,126.28,80.24,124.23,80.24z"/>
	<g>
		<path class="st2" d="M3.4,26.43c0-0.5,0.14-0.89,0.41-1.19s0.65-0.44,1.15-0.44H40.1c0.52,0,0.92,0.15,1.2,0.46
			c0.28,0.31,0.42,0.72,0.42,1.24v8.76c0,0.4-0.14,0.78-0.42,1.15c-0.28,0.37-0.7,0.55-1.24,0.55H17.11v8.79h17.71
			c0.45,0,0.82,0.11,1.12,0.32c0.29,0.21,0.44,0.57,0.44,1.06v7.65c0,0.33-0.13,0.65-0.39,0.96c-0.26,0.31-0.64,0.46-1.13,0.46
			H17.11v9.07h23.81c1.06,0,1.59,0.54,1.59,1.62v8.9c0,0.24-0.09,0.45-0.28,0.64c-0.09,0.66-0.58,0.99-1.45,0.99H4.96
			c-0.47,0-0.85-0.12-1.13-0.37c-0.28-0.25-0.42-0.63-0.42-1.15V26.43z"/>
		<path class="st3" d="M83.32,72.98c-0.64,0.64-1.36,1.27-2.18,1.89c-0.81,0.63-1.7,1.19-2.66,1.68c-0.96,0.5-1.98,0.9-3.08,1.21
			c-1.1,0.31-2.26,0.46-3.49,0.46c-3.21,0-6.17-0.6-8.87-1.81c-2.7-1.2-5.03-2.85-6.98-4.94s-3.47-4.55-4.57-7.39
			s-1.65-5.88-1.65-9.14c0-3.28,0.55-6.34,1.65-9.16c1.1-2.82,2.62-5.28,4.57-7.37c1.95-2.09,4.27-3.73,6.98-4.92
			s5.66-1.79,8.87-1.79c1.3,0,2.49,0.11,3.56,0.34c1.07,0.22,2.05,0.55,2.94,0.97c0.89,0.43,1.7,0.93,2.44,1.52
			c0.74,0.59,1.45,1.24,2.11,1.95V21.72c0-0.76,0.23-1.39,0.69-1.91c0.46-0.52,1.15-0.78,2.07-0.78h7.97c0.31,0,0.63,0.07,0.97,0.19
			c0.34,0.13,0.66,0.31,0.94,0.55c0.28,0.24,0.51,0.52,0.69,0.85c0.18,0.33,0.27,0.7,0.27,1.1v52.96c0,1.82-0.96,2.73-2.87,2.73
			h-6.94c-0.47,0-0.84-0.06-1.1-0.18c-0.26-0.12-0.48-0.29-0.66-0.51s-0.34-0.51-0.48-0.85c-0.14-0.34-0.32-0.74-0.53-1.19
			L83.32,72.98z M62.59,54.95c0,1.56,0.24,3.02,0.73,4.38c0.48,1.36,1.17,2.53,2.07,3.52c0.9,0.99,1.98,1.78,3.24,2.36
			c1.26,0.58,2.66,0.87,4.2,0.87c1.51,0,2.93-0.27,4.27-0.81c1.33-0.54,2.5-1.29,3.49-2.25c0.99-0.96,1.79-2.08,2.39-3.38
			c0.6-1.3,0.94-2.69,1.01-4.18v-0.5c0-1.51-0.28-2.95-0.85-4.32s-1.35-2.57-2.36-3.61c-1-1.04-2.18-1.86-3.54-2.46
			c-1.36-0.6-2.83-0.9-4.41-0.9c-1.54,0-2.93,0.3-4.2,0.9c-1.26,0.6-2.34,1.42-3.24,2.46c-0.9,1.04-1.59,2.24-2.07,3.61
			C62.84,52,62.59,53.44,62.59,54.95z"/>
		<path class="st0" d="M149.24,76.81c-0.31,0.26-0.63,0.43-0.97,0.5c-0.34,0.07-0.67,0.11-0.97,0.11h-5.35
			c-0.43,0-0.79-0.08-1.1-0.23c-0.31-0.15-0.57-0.36-0.78-0.62c-0.21-0.26-0.39-0.55-0.53-0.88s-0.26-0.67-0.35-1.02l-0.74-3.46
			c-0.35,0.73-0.94,1.5-1.77,2.31s-1.85,1.56-3.06,2.24c-1.22,0.68-2.62,1.25-4.2,1.7c-1.58,0.45-3.31,0.67-5.17,0.67
			c-2.69,0-5.08-0.52-7.16-1.56c-2.08-1.04-3.83-2.46-5.26-4.25c-1.43-1.79-2.51-3.89-3.24-6.29c-0.73-2.4-1.1-4.95-1.1-7.67v-23.2
			c0-0.9,0.19-1.58,0.58-2.04c0.39-0.46,1.01-0.69,1.86-0.69h8.18c1.02,0,1.71,0.17,2.09,0.51c0.38,0.34,0.57,1.01,0.57,2v23.09
			c0,1.02,0.19,1.98,0.58,2.89s0.92,1.71,1.58,2.41c0.66,0.7,1.43,1.25,2.32,1.65c0.89,0.4,1.82,0.6,2.82,0.6
			c0.85,0,1.77-0.14,2.76-0.43c0.99-0.28,1.91-0.73,2.76-1.33c0.85-0.6,1.56-1.38,2.12-2.32c0.57-0.95,0.85-2.08,0.85-3.4V35.04
			c0-0.4,0.08-0.8,0.23-1.21c0.15-0.4,0.38-0.71,0.69-0.92c0.31-0.19,0.6-0.32,0.87-0.39c0.27-0.07,0.58-0.11,0.94-0.11h8.01
			c1.02,0,1.75,0.25,2.2,0.74c0.45,0.5,0.67,1.16,0.67,1.98v39.64c0,0.45-0.1,0.86-0.3,1.24c-0.2,0.38-0.48,0.67-0.83,0.89
			L149.24,76.81z"/>
	</g>
	<path class="st1" d="M193.39,80.81c-1.25,0-2.43-0.47-3.41-1.36c-1.06-0.96-1.65-2.28-1.65-3.71V40.36h-8.78
		c-1.34,0-2.6-0.5-3.55-1.41c-0.98-0.94-1.52-2.29-1.52-3.79v-8.79c0-1.44,0.58-2.74,1.62-3.67c0.95-0.84,2.14-1.28,3.45-1.28h38.12
		c1.18,0,2.3,0.38,3.23,1.11c1.07,0.83,1.73,2.09,1.86,3.53l0.01,0.21l0,8.89c0,1.17-0.39,2.3-1.14,3.28
		c-0.94,1.24-2.35,1.92-3.96,1.92h-8.82v35.39c0,1.27-0.46,2.45-1.33,3.42c-0.94,1.06-2.27,1.65-3.73,1.65H193.39z"/>
	<path d="M193.39,78.68c-0.71,0-1.4-0.28-1.99-0.81c-0.62-0.56-0.95-1.3-0.95-2.13V38.23h-10.91c-0.8,0-1.52-0.28-2.07-0.82
		c-0.4-0.38-0.87-1.08-0.87-2.26v-8.79c0-0.84,0.31-1.56,0.91-2.08c0.55-0.49,1.25-0.75,2.03-0.75h38.12c0.71,0,1.36,0.22,1.92,0.66
		c0.42,0.33,0.95,0.96,1.05,2.05l0.01,0.12v8.79c0,0.71-0.24,1.38-0.7,1.99c-0.54,0.71-1.33,1.09-2.27,1.09h-10.95v37.51
		c0,0.74-0.27,1.43-0.78,2c-0.55,0.61-1.29,0.94-2.15,0.94H193.39z"/>
	<path class="st1" d="M230.73,80.81c-3.69,0-6.17-2.46-6.17-6.13V35.04c0-0.98,0.2-1.88,0.6-2.69c0.39-0.79,0.93-1.45,1.6-1.97
		c0.6-0.47,1.28-0.82,2.01-1.05c0.67-0.21,1.35-0.31,2.02-0.31h5.35c1.48,0,2.83,0.54,3.82,1.52c0.39,0.39,0.74,0.83,1.04,1.31
		c0.37-0.32,0.75-0.62,1.13-0.9c1.04-0.77,2.2-1.4,3.44-1.87c1.34-0.51,2.85-0.77,4.49-0.77c1.48,0,2.84,0.12,4.05,0.34
		c1.23,0.23,2.41,0.58,3.51,1.02c1.09,0.45,2.17,1.01,3.23,1.69c0.9,0.57,1.88,1.25,2.93,2.01c2.65,1.62,3.05,3.78,3.05,4.93
		c0,1.15-0.35,2.3-1.07,3.53l-3.26,5.56l-0.04,0.06c-1.3,1.89-3.16,2.93-5.22,2.93c-0.95,0-1.95-0.23-2.97-0.68l-0.56-0.25
		l-0.44-0.43c-0.73-0.71-1.45-1.24-2.15-1.56c-0.59-0.27-1.33-0.41-2.17-0.41c-0.63,0-1.02,0.1-1.24,0.18
		c-0.34,0.13-0.63,0.29-0.91,0.53c-0.36,0.3-0.72,0.68-1.05,1.13c-0.27,0.35-0.54,0.74-0.81,1.15v24.65c0,1.77-0.55,3.28-1.59,4.38
		c-1.11,1.16-2.67,1.75-4.65,1.75H230.73z"/>
	<path d="M230.73,78.68c-2.53,0-4.04-1.5-4.04-4V35.04c0-0.64,0.13-1.23,0.38-1.74c0.25-0.5,0.59-0.92,1.01-1.25
		c0.39-0.31,0.84-0.54,1.33-0.69c0.47-0.14,0.93-0.22,1.39-0.22h5.35c0.92,0,1.73,0.31,2.32,0.9c0.46,0.46,0.85,1.04,1.16,1.72
		c0.25,0.54,0.47,1.15,0.67,1.81c0.22-0.24,0.45-0.48,0.67-0.73c0.75-0.81,1.57-1.55,2.43-2.18c0.89-0.65,1.88-1.19,2.94-1.6
		c1.1-0.42,2.35-0.63,3.73-0.63c1.35,0,2.58,0.1,3.65,0.3c1.08,0.21,2.12,0.51,3.1,0.9c0.97,0.4,1.94,0.9,2.88,1.51
		c0.89,0.57,1.87,1.24,2.9,1.99c1.73,1.03,2.1,2.28,2.1,3.16c0,0.76-0.25,1.56-0.78,2.45l-3.22,5.49c-1.16,1.68-2.52,2.01-3.47,2.01
		c-0.65,0-1.36-0.17-2.11-0.5l-0.21-0.09l-0.17-0.16c-0.9-0.88-1.83-1.54-2.74-1.97c-0.88-0.4-1.91-0.61-3.06-0.61
		c-0.76,0-1.43,0.1-1.98,0.31c-0.57,0.21-1.07,0.5-1.52,0.88c-0.49,0.41-0.96,0.91-1.39,1.49c-0.41,0.54-0.82,1.15-1.23,1.8v25.28
		c0,1.23-0.34,2.21-1,2.91c-0.69,0.72-1.73,1.09-3.1,1.09H230.73z"/>
	<path class="st1" d="M290.91,81.62c-2.45,0-4.83-0.32-7.09-0.94c-2.25-0.62-4.38-1.51-6.34-2.67c-1.96-1.15-3.76-2.54-5.35-4.15
		c-1.59-1.6-2.98-3.41-4.12-5.38c-1.15-1.97-2.04-4.12-2.66-6.4c-0.62-2.27-0.93-4.68-0.93-7.15c0-3.73,0.7-7.26,2.08-10.49
		c1.37-3.21,3.27-6.05,5.64-8.43c2.38-2.39,5.21-4.3,8.42-5.66c3.22-1.37,6.71-2.06,10.36-2.06c1.75,0,3.41,0.2,4.95,0.6
		c1.52,0.4,2.94,0.95,4.23,1.64c0.73,0.39,1.42,0.83,2.08,1.32c0.3-0.64,0.66-1.17,1.09-1.6c0.64-0.64,1.41-1.06,2.3-1.26
		c0.52-0.12,1.11-0.17,1.85-0.17h5.28c0.49,0,1.01,0.06,1.59,0.17c0.95,0.19,1.79,0.62,2.5,1.28c0.71,0.59,1.24,1.3,1.59,2.1
		c0.32,0.76,0.49,1.59,0.49,2.48v39.92c0,0.82-0.15,1.62-0.44,2.38c-0.36,0.94-0.95,1.71-1.74,2.3c-0.69,0.6-1.49,1-2.4,1.18
		c-0.57,0.12-1.09,0.17-1.58,0.17h-6.98c-0.97,0-1.8-0.15-2.54-0.47c-0.82-0.34-1.52-0.87-2.07-1.56c-0.05-0.06-0.1-0.12-0.14-0.19
		c-0.61,0.38-1.24,0.74-1.9,1.07c-1.17,0.58-2.45,1.05-3.79,1.41C293.87,81.44,292.4,81.62,290.91,81.62z M290.8,47.05
		c-1.02,0-1.94,0.19-2.73,0.57c-0.83,0.4-1.55,0.94-2.13,1.62c-0.62,0.71-1.1,1.56-1.44,2.52c-0.35,1-0.53,2.07-0.53,3.19
		c0,1.16,0.18,2.25,0.53,3.23c0.33,0.93,0.8,1.73,1.39,2.38c0.58,0.64,1.3,1.16,2.13,1.54c0.81,0.37,1.75,0.56,2.78,0.56
		c1.11,0,2.15-0.2,3.08-0.6c0.96-0.41,1.79-0.96,2.49-1.65c0.68-0.67,1.22-1.48,1.61-2.41c0.39-0.94,0.59-1.97,0.59-3.07
		c0-1.06-0.2-2.07-0.59-3.02c-0.4-0.97-0.96-1.83-1.66-2.55c-0.69-0.72-1.53-1.29-2.48-1.71C292.92,47.26,291.9,47.05,290.8,47.05z"
		/>
	<path d="M290.91,79.5c-2.25,0-4.45-0.29-6.52-0.86c-2.07-0.57-4.03-1.39-5.83-2.45c-1.8-1.05-3.46-2.34-4.92-3.82
		c-1.46-1.47-2.74-3.14-3.79-4.95c-1.05-1.81-1.88-3.79-2.45-5.89c-0.57-2.09-0.86-4.31-0.86-6.59c0-3.44,0.64-6.69,1.91-9.66
		c1.26-2.96,3.01-5.57,5.19-7.77c2.18-2.2,4.79-3.95,7.74-5.2c2.96-1.25,6.16-1.89,9.53-1.89c1.57,0,3.05,0.18,4.41,0.54
		c1.36,0.36,2.62,0.85,3.75,1.46c1.14,0.61,2.19,1.36,3.11,2.23c0.3,0.28,0.59,0.57,0.87,0.86l0.31-0.97
		c0.27-0.69,0.47-1.17,0.62-1.54c0.22-0.52,0.47-0.92,0.77-1.22c0.35-0.35,0.78-0.58,1.27-0.7c0.36-0.08,0.81-0.12,1.38-0.12h5.28
		c0.35,0,0.73,0.04,1.17,0.13c0.57,0.11,1.08,0.38,1.51,0.79c0.47,0.38,0.82,0.83,1.04,1.34c0.21,0.49,0.31,1.04,0.31,1.64v39.92
		c0,0.56-0.1,1.1-0.3,1.61c-0.22,0.58-0.59,1.05-1.1,1.4c-0.42,0.39-0.92,0.64-1.48,0.75c-0.44,0.09-0.82,0.13-1.17,0.13h-6.98
		c-0.68,0-1.24-0.1-1.7-0.3c-0.5-0.21-0.92-0.52-1.24-0.93c-0.27-0.33-0.5-0.74-0.67-1.21c-0.1-0.27-0.21-0.56-0.32-0.87
		c-0.25,0.2-0.5,0.4-0.77,0.6c-0.87,0.66-1.85,1.25-2.9,1.77c-1.05,0.52-2.19,0.94-3.39,1.26C293.5,79.34,292.22,79.5,290.91,79.5z
		 M290.8,44.92c-1.34,0-2.56,0.26-3.65,0.78c-1.1,0.52-2.05,1.25-2.83,2.14c-0.79,0.91-1.41,1.99-1.83,3.2
		c-0.43,1.23-0.65,2.54-0.65,3.9c0,1.41,0.22,2.73,0.65,3.95c0.42,1.19,1.04,2.23,1.82,3.1c0.78,0.86,1.73,1.55,2.83,2.05
		c1.09,0.5,2.32,0.75,3.67,0.75c1.4,0,2.72-0.26,3.91-0.77c1.2-0.51,2.26-1.21,3.15-2.09c0.88-0.87,1.58-1.91,2.07-3.11
		c0.5-1.19,0.75-2.5,0.75-3.88c0-1.34-0.25-2.63-0.75-3.83c-0.5-1.21-1.21-2.3-2.09-3.22c-0.88-0.91-1.94-1.65-3.14-2.18
		C293.51,45.19,292.2,44.92,290.8,44.92z"/>
	<path class="st1" d="M328.04,80.81c-3.6,0-6.02-2.46-6.02-6.13v-39.5c0-1.51,0.47-2.91,1.36-4.04c0.44-0.56,0.97-1.02,1.59-1.36
		c-1.85-1-2.94-2.99-2.94-5.61v-6.91c0-1.94,0.56-3.47,1.67-4.54c1.08-1.05,2.55-1.58,4.36-1.58h8.22c1.62,0,3.02,0.46,4.15,1.38
		c0.92,0.75,2.02,2.18,2.02,4.75v6.91c0,0.71-0.14,1.44-0.43,2.16c-0.25,0.63-0.59,1.23-1.02,1.79c-0.5,0.65-1.12,1.2-1.84,1.62
		c-0.03,0.02-0.06,0.03-0.09,0.05c0.42,0.23,0.82,0.51,1.19,0.83c0.55,0.48,1.02,1.04,1.39,1.67c0.53,0.87,0.79,1.84,0.79,2.89v39.5
		c0,1.85-0.63,3.42-1.83,4.53c-1.13,1.05-2.66,1.6-4.44,1.6H328.04z"/>
	<path d="M328.04,78.68c-2.44,0-3.9-1.5-3.9-4v-39.5c0-1.04,0.31-1.96,0.91-2.73c0.47-0.6,1.36-1.3,2.99-1.3h8.11
		c0.44,0,0.91,0.09,1.39,0.28c0.47,0.18,0.9,0.45,1.3,0.79c0.38,0.33,0.71,0.73,0.98,1.17c0.32,0.53,0.49,1.13,0.49,1.79v39.5
		c0,1.26-0.39,2.26-1.15,2.97c-0.74,0.68-1.75,1.03-2.99,1.03H328.04z M328.04,28.38c-2.48,0-3.9-1.54-3.9-4.22v-6.91
		c0-1.34,0.34-2.36,1.02-3.02c0.67-0.65,1.64-0.98,2.87-0.98h8.22c1.12,0,2.07,0.3,2.81,0.91c0.82,0.67,1.23,1.71,1.23,3.1v6.91
		c0,0.44-0.1,0.91-0.28,1.39c-0.17,0.44-0.42,0.87-0.73,1.27c-0.34,0.44-0.75,0.8-1.23,1.08c-0.54,0.32-1.15,0.48-1.8,0.48H328.04z"
		/>
	<path class="st1" d="M381.07,80.81c-1.91,0-3.34-0.46-4.38-1.4c-1.11-1.01-1.68-2.53-1.68-4.52V51.83c0-0.48-0.1-0.91-0.32-1.35
		c-0.27-0.54-0.64-1.03-1.09-1.44c-0.46-0.43-0.99-0.77-1.58-1.01c-0.54-0.22-1.08-0.34-1.61-0.34c-0.38,0-0.81,0.1-1.27,0.29
		c-0.53,0.23-1.04,0.55-1.49,0.97c-0.47,0.42-0.87,0.93-1.19,1.51c-0.25,0.46-0.39,0.92-0.44,1.46l0,22.86
		c0,0.82-0.15,1.63-0.46,2.42c-0.39,1.03-1.06,1.9-1.93,2.5l-0.09,0.06c-0.64,0.4-1.25,0.67-1.86,0.83
		c-0.54,0.14-1.13,0.21-1.79,0.21h-8.01c-2.51,0-3.95-1.01-4.72-1.86c-1.01-1.12-1.55-2.59-1.55-4.26V35.07
		c0-1.01,0.24-1.97,0.7-2.84c0.05-0.1,0.11-0.2,0.17-0.3l-0.15-0.24l1.4-1.23c0.74-0.63,1.58-1.04,2.48-1.23
		c0.58-0.12,1.14-0.18,1.67-0.18h5.35c0.96,0,1.83,0.2,2.62,0.59c0.74,0.37,1.37,0.88,1.89,1.5c0.19,0.23,0.36,0.48,0.52,0.73
		c0.48-0.32,0.99-0.63,1.52-0.92c1.4-0.76,3.01-1.39,4.8-1.87c1.82-0.49,3.84-0.73,6.02-0.73c3.2,0,6.13,0.64,8.71,1.9
		c2.54,1.25,4.73,2.97,6.51,5.13c1.74,2.11,3.08,4.6,3.98,7.4c0.87,2.72,1.31,5.65,1.31,8.7v23.2c0,1.72-0.47,3.14-1.39,4.23
		c-0.73,0.87-2.1,1.9-4.46,1.9H381.07z"/>
	<path d="M381.07,78.68c-1.36,0-2.32-0.28-2.95-0.85c-0.66-0.6-0.98-1.56-0.98-2.94V51.83c0-0.82-0.18-1.58-0.55-2.31
		c-0.39-0.77-0.91-1.46-1.55-2.05c-0.64-0.59-1.38-1.07-2.2-1.41c-0.8-0.33-1.61-0.5-2.43-0.5c-0.67,0-1.38,0.16-2.1,0.46
		c-0.75,0.32-1.45,0.78-2.09,1.35c-0.64,0.58-1.18,1.27-1.62,2.05c-0.42,0.75-0.65,1.54-0.71,2.42l0,22.94
		c0,0.55-0.11,1.11-0.31,1.66c-0.25,0.64-0.63,1.15-1.16,1.52c-0.47,0.29-0.88,0.47-1.27,0.57c-0.38,0.1-0.79,0.15-1.26,0.15h-8.01
		c-1.39,0-2.44-0.39-3.14-1.16c-0.67-0.73-1-1.69-1-2.84V35.07c0-0.66,0.15-1.28,0.45-1.84c0.24-0.45,0.55-0.82,0.94-1.13
		l-0.02-0.02c0.47-0.4,0.99-0.66,1.54-0.77c0.43-0.09,0.85-0.13,1.24-0.13h5.35c0.62,0,1.18,0.12,1.67,0.36
		c0.47,0.24,0.87,0.56,1.2,0.95c0.3,0.36,0.54,0.78,0.71,1.23c0.14,0.35,0.27,0.71,0.39,1.08l0.03,0.11l0.11,0.45
		c0.07-0.07,0.14-0.15,0.22-0.22c0.87-0.86,1.96-1.64,3.22-2.33c1.25-0.68,2.71-1.25,4.33-1.68c1.64-0.44,3.48-0.66,5.47-0.66
		c2.88,0,5.49,0.57,7.77,1.68c2.27,1.11,4.22,2.65,5.81,4.57c1.57,1.91,2.78,4.16,3.6,6.7c0.8,2.51,1.21,5.22,1.21,8.05v23.2
		c0,1.2-0.3,2.17-0.88,2.86c-0.64,0.76-1.6,1.14-2.83,1.14H381.07z"/>
	<path class="st1" d="M404.27,80.81c-3.6,0-6.02-2.46-6.02-6.13v-39.5c0-1.51,0.47-2.91,1.36-4.04c0.44-0.56,0.97-1.01,1.58-1.36
		c-1.85-1-2.94-2.99-2.94-5.61v-6.91c0-1.94,0.56-3.47,1.67-4.55c1.08-1.05,2.55-1.58,4.36-1.58h8.22c1.62,0,3.02,0.46,4.15,1.38
		c0.92,0.75,2.02,2.18,2.02,4.75v6.91c0,0.71-0.14,1.43-0.43,2.16c-0.25,0.64-0.6,1.24-1.02,1.79c-0.5,0.65-1.12,1.2-1.84,1.62
		c-0.03,0.02-0.06,0.04-0.09,0.05c0.42,0.23,0.82,0.51,1.19,0.83c0.54,0.48,1.01,1.04,1.39,1.66c0.53,0.87,0.79,1.85,0.79,2.9v39.5
		c0,1.85-0.63,3.42-1.83,4.53c-1.13,1.05-2.66,1.6-4.44,1.6H404.27z"/>
	<path d="M404.27,78.68c-2.44,0-3.9-1.5-3.9-4v-39.5c0-1.04,0.31-1.96,0.91-2.74c0.47-0.59,1.36-1.3,2.99-1.3h8.11
		c0.44,0,0.91,0.09,1.39,0.28c0.47,0.18,0.9,0.45,1.3,0.79c0.38,0.33,0.71,0.73,0.98,1.17c0.32,0.53,0.49,1.14,0.49,1.8v39.5
		c0,1.26-0.39,2.26-1.15,2.97c-0.74,0.68-1.75,1.03-2.99,1.03H404.27z M404.27,28.38c-2.48,0-3.9-1.54-3.9-4.22v-6.91
		c0-1.36,0.33-2.35,1.02-3.02c0.67-0.65,1.64-0.98,2.87-0.98h8.22c1.12,0,2.07,0.3,2.81,0.91c0.82,0.67,1.23,1.71,1.23,3.1v6.91
		c0,0.44-0.09,0.91-0.28,1.38c-0.18,0.45-0.42,0.87-0.73,1.27c-0.34,0.44-0.75,0.8-1.23,1.08c-0.54,0.32-1.15,0.48-1.8,0.48H404.27z
		"/>
	<path class="st1" d="M457.3,80.81c-1.91,0-3.34-0.46-4.37-1.39c-1.12-1.01-1.68-2.53-1.68-4.52V51.83c0-0.48-0.1-0.91-0.32-1.35
		c-0.27-0.54-0.64-1.03-1.09-1.44c-0.46-0.43-0.99-0.77-1.58-1.01c-0.54-0.22-1.08-0.34-1.61-0.34c-0.38,0-0.81,0.1-1.27,0.29
		c-0.53,0.23-1.04,0.55-1.5,0.97c-0.47,0.42-0.87,0.93-1.19,1.51c-0.25,0.46-0.39,0.92-0.44,1.46l0,22.86
		c0,0.82-0.15,1.63-0.45,2.42c-0.4,1.05-1.05,1.89-1.93,2.5l-0.09,0.06c-0.64,0.4-1.25,0.67-1.87,0.83
		c-0.54,0.14-1.13,0.21-1.79,0.21h-8.01c-2.51,0-3.95-1.01-4.72-1.86c-1.01-1.12-1.55-2.59-1.55-4.26V35.07c0-1,0.23-1.96,0.7-2.83
		c0.06-0.11,0.12-0.21,0.18-0.31l-0.15-0.24l1.4-1.23c0.74-0.63,1.58-1.04,2.48-1.23c0.57-0.12,1.13-0.18,1.67-0.18h5.35
		c0.96,0,1.84,0.2,2.62,0.59c0.74,0.37,1.37,0.88,1.89,1.5c0.19,0.23,0.36,0.47,0.51,0.72c0.48-0.32,0.99-0.63,1.52-0.92
		c1.4-0.76,3.01-1.39,4.8-1.87c1.82-0.49,3.84-0.73,6.02-0.73c3.2,0,6.13,0.64,8.71,1.9c2.54,1.25,4.73,2.97,6.51,5.13
		c1.75,2.12,3.08,4.61,3.98,7.4c0.87,2.72,1.31,5.65,1.31,8.7v23.2c0,1.72-0.47,3.14-1.39,4.23c-0.73,0.87-2.1,1.9-4.46,1.9H457.3z"
		/>
	<path d="M457.3,78.68c-1.36,0-2.32-0.28-2.95-0.84c-0.66-0.6-0.98-1.56-0.98-2.95V51.83c0-0.82-0.18-1.58-0.55-2.31
		c-0.39-0.77-0.91-1.46-1.55-2.05c-0.64-0.59-1.38-1.07-2.2-1.41c-0.8-0.33-1.61-0.5-2.43-0.5c-0.67,0-1.38,0.16-2.1,0.46
		c-0.75,0.32-1.46,0.78-2.09,1.35c-0.64,0.58-1.18,1.27-1.62,2.05c-0.42,0.75-0.65,1.54-0.71,2.42l0,22.94
		c0,0.56-0.11,1.12-0.31,1.66c-0.25,0.65-0.64,1.16-1.16,1.52c-0.47,0.29-0.88,0.47-1.27,0.57c-0.38,0.1-0.79,0.15-1.26,0.15h-8.01
		c-1.39,0-2.44-0.39-3.14-1.16c-0.67-0.73-1-1.69-1-2.84V35.07c0-0.66,0.15-1.27,0.45-1.83c0.24-0.45,0.55-0.83,0.94-1.13
		l-0.02-0.02c0.47-0.4,0.99-0.66,1.54-0.77c0.43-0.09,0.84-0.13,1.23-0.13h5.35c0.62,0,1.18,0.12,1.67,0.37
		c0.47,0.24,0.87,0.56,1.2,0.95c0.29,0.36,0.54,0.77,0.71,1.23c0.14,0.35,0.27,0.71,0.4,1.09l0.03,0.11l0.11,0.45
		c0.07-0.07,0.14-0.15,0.22-0.22c0.87-0.86,1.96-1.64,3.23-2.33c1.25-0.68,2.71-1.25,4.33-1.68c1.64-0.44,3.48-0.66,5.47-0.66
		c2.88,0,5.49,0.57,7.77,1.68c2.27,1.11,4.22,2.65,5.81,4.57c1.57,1.91,2.78,4.16,3.6,6.7c0.8,2.51,1.21,5.22,1.21,8.05v23.2
		c0,1.2-0.3,2.17-0.89,2.86c-0.64,0.76-1.6,1.14-2.83,1.14H457.3z"/>
	<path class="st1" d="M500.48,97.57c-1.44,0-3-0.13-4.62-0.38c-1.62-0.25-3.26-0.63-4.86-1.12c-1.63-0.5-3.23-1.16-4.76-1.94
		c-1.56-0.8-2.97-1.75-4.2-2.82c-0.64-0.49-1.18-1.09-1.62-1.79c-0.6-0.94-0.9-1.99-0.9-3.11c0-1.28,0.42-2.56,1.26-3.79l3.55-4.89
		l0.09-0.09c0.44-0.47,0.83-0.83,1.23-1.13c-1.54-0.95-2.95-2.05-4.23-3.3c-2.31-2.27-4.13-5.01-5.41-8.14
		c-1.27-3.11-1.92-6.56-1.92-10.25c0-3.65,0.64-7.13,1.9-10.33c1.27-3.22,3.06-6.07,5.34-8.46c2.29-2.41,5.03-4.33,8.15-5.7
		c3.14-1.38,6.58-2.08,10.22-2.08c1.76,0,3.41,0.21,4.9,0.62c1.48,0.41,2.87,0.98,4.11,1.7c0.65,0.38,1.28,0.79,1.88,1.25
		c0.2-0.39,0.44-0.74,0.71-1.06c0.55-0.65,1.24-1.15,2.06-1.48c0.71-0.28,1.5-0.42,2.42-0.42h5.28c0.72,0,1.44,0.13,2.14,0.38
		c0.67,0.24,1.3,0.58,1.86,1.02c0.67,0.53,1.21,1.19,1.6,1.97c0.4,0.81,0.61,1.7,0.61,2.66v36.06c0,4.12-0.7,7.87-2.07,11.16
		c-1.38,3.3-3.31,6.15-5.74,8.45c-2.42,2.3-5.32,4.07-8.6,5.26C507.64,96.97,504.15,97.57,500.48,97.57z M500.48,46.98
		c-1.02,0-1.94,0.19-2.73,0.57c-0.84,0.4-1.57,0.94-2.16,1.61c-0.6,0.68-1.08,1.51-1.41,2.46c-0.35,1-0.53,2.07-0.53,3.19
		c0,1.18,0.18,2.28,0.53,3.27c0.33,0.93,0.8,1.73,1.39,2.38c0.58,0.64,1.29,1.15,2.11,1.52c0.82,0.37,1.76,0.55,2.81,0.55
		c1.07,0,2.08-0.19,3.01-0.56c0.92-0.37,1.73-0.88,2.4-1.52c0.68-0.65,1.24-1.43,1.66-2.32c0.4-0.85,0.63-1.79,0.69-2.8l0-1
		c-0.05-0.92-0.29-1.86-0.69-2.71c-0.43-0.92-1-1.73-1.7-2.42c-0.69-0.68-1.51-1.23-2.45-1.64
		C502.5,47.18,501.51,46.98,500.48,46.98z"/>
	<path d="M500.48,95.44c-1.33,0-2.78-0.12-4.3-0.35c-1.52-0.23-3.06-0.59-4.56-1.05c-1.51-0.47-3-1.07-4.42-1.8
		c-1.43-0.73-2.71-1.6-3.82-2.57c-0.46-0.35-0.86-0.78-1.18-1.28c-0.38-0.59-0.57-1.26-0.57-1.98c0-0.85,0.3-1.72,0.89-2.59
		l3.43-4.74l0.05-0.06c0.41-0.44,0.79-0.77,1.18-1.01c0.49-0.3,1.03-0.46,1.6-0.46c0.8,0,1.69,0.36,2.7,1.09l0.07,0.05l0.06,0.06
		c0.48,0.46,1.04,0.84,1.67,1.12c0.7,0.31,1.42,0.56,2.16,0.74c0.74,0.18,1.48,0.3,2.2,0.36c0.75,0.06,1.44,0.09,2.05,0.09
		c0.96,0,1.97-0.13,3.03-0.39c1.04-0.25,2.02-0.64,2.93-1.13c0.88-0.49,1.68-1.1,2.35-1.8c0.62-0.65,1.04-1.38,1.27-2.22
		c0.15-0.44,0.24-0.86,0.28-1.3c-0.74,0.72-1.56,1.38-2.45,1.95c-0.95,0.61-2.04,1.12-3.23,1.49c-1.2,0.38-2.61,0.57-4.17,0.57
		c-3.34,0-6.48-0.58-9.33-1.72c-2.86-1.14-5.37-2.77-7.47-4.83c-2.1-2.06-3.76-4.56-4.93-7.42c-1.17-2.85-1.76-6.03-1.76-9.44
		c0-3.38,0.59-6.6,1.75-9.55c1.17-2.96,2.82-5.58,4.9-7.78c2.09-2.2,4.6-3.96,7.46-5.21c2.87-1.26,6.02-1.9,9.37-1.9
		c1.57,0,3.03,0.18,4.34,0.54c1.31,0.36,2.52,0.86,3.61,1.49c1.08,0.62,2.09,1.37,2.98,2.21c0.3,0.29,0.6,0.58,0.89,0.88l0.32-1
		l0.41-1.14c0.17-0.47,0.4-0.89,0.69-1.23c0.32-0.38,0.74-0.68,1.23-0.88c0.45-0.18,0.98-0.27,1.63-0.27h5.28
		c0.48,0,0.95,0.08,1.42,0.25c0.46,0.17,0.88,0.4,1.26,0.69c0.42,0.33,0.76,0.75,1.01,1.25c0.25,0.51,0.38,1.08,0.38,1.7v36.06
		c0,3.83-0.64,7.31-1.91,10.34c-1.27,3.03-3.03,5.63-5.24,7.73c-2.21,2.09-4.85,3.71-7.86,4.81
		C507.14,94.89,503.89,95.44,500.48,95.44z M500.48,44.85c-1.34,0-2.57,0.26-3.65,0.78c-1.1,0.52-2.05,1.24-2.83,2.12
		c-0.78,0.89-1.4,1.95-1.82,3.16c-0.43,1.23-0.65,2.54-0.65,3.9c0,1.43,0.22,2.77,0.65,3.98c0.42,1.19,1.04,2.23,1.82,3.1
		c0.77,0.86,1.72,1.54,2.82,2.03c1.09,0.49,2.33,0.74,3.68,0.74c1.34,0,2.62-0.24,3.8-0.71c1.17-0.47,2.21-1.12,3.08-1.95
		c0.87-0.83,1.58-1.82,2.12-2.95c0.53-1.12,0.83-2.35,0.89-3.66l0-1.11c-0.06-1.2-0.36-2.42-0.89-3.55
		c-0.54-1.14-1.25-2.17-2.13-3.04c-0.88-0.86-1.92-1.56-3.1-2.08C503.07,45.11,501.81,44.85,500.48,44.85z"/>
	<g>
		<g>
			<path class="st1" d="M177.87,26.36c0-0.47,0.16-0.85,0.48-1.13c0.32-0.28,0.71-0.42,1.19-0.42h38.12c0.43,0,0.8,0.13,1.13,0.39
				c0.33,0.26,0.52,0.65,0.57,1.17v8.79c0,0.42-0.15,0.83-0.44,1.22c-0.3,0.39-0.71,0.58-1.26,0.58h-12.22v38.79
				c0,0.43-0.15,0.81-0.46,1.15c-0.31,0.34-0.71,0.51-1.2,0.51h-10.39c-0.4,0-0.78-0.16-1.13-0.48c-0.35-0.32-0.53-0.72-0.53-1.19
				V36.95h-12.19c-0.47,0-0.87-0.15-1.19-0.46s-0.48-0.75-0.48-1.34V26.36z"/>
			<path class="st1" d="M227.96,35.04c0-0.45,0.08-0.84,0.25-1.17c0.17-0.33,0.38-0.6,0.66-0.81c0.27-0.21,0.58-0.37,0.92-0.48
				c0.34-0.11,0.68-0.16,1.01-0.16h5.35c0.59,0,1.06,0.18,1.42,0.53c0.35,0.35,0.66,0.8,0.9,1.35c0.25,0.54,0.47,1.15,0.66,1.81
				c0.19,0.66,0.41,1.3,0.67,1.91c0.71-0.78,1.41-1.55,2.11-2.3s1.45-1.43,2.25-2.02c0.8-0.59,1.68-1.07,2.64-1.44
				c0.96-0.37,2.05-0.55,3.28-0.55c1.28,0,2.42,0.09,3.42,0.28c1,0.19,1.95,0.47,2.85,0.83c0.9,0.37,1.79,0.83,2.67,1.4
				s1.85,1.23,2.89,1.98c1.02,0.59,1.52,1.29,1.52,2.09c0,0.52-0.2,1.12-0.6,1.81l-3.22,5.49c-0.64,0.92-1.43,1.38-2.37,1.38
				c-0.47,0-1-0.13-1.59-0.39c-1.02-0.99-2.05-1.73-3.1-2.21c-1.05-0.48-2.25-0.73-3.6-0.73c-0.92,0-1.73,0.13-2.43,0.39
				c-0.7,0.26-1.33,0.63-1.9,1.1c-0.57,0.47-1.1,1.04-1.59,1.7c-0.5,0.66-0.99,1.39-1.49,2.2v25.65c0,0.9-0.22,1.58-0.66,2.04
				c-0.44,0.46-1.16,0.69-2.18,0.69h-7.97c-1.84,0-2.76-0.91-2.76-2.73V35.04z"/>
			<path class="st1" d="M315.46,74.79c0,0.4-0.07,0.79-0.21,1.15s-0.38,0.66-0.71,0.87c-0.26,0.26-0.57,0.43-0.92,0.5
				c-0.35,0.07-0.66,0.11-0.92,0.11h-6.98c-0.5,0-0.9-0.06-1.2-0.2c-0.31-0.13-0.56-0.31-0.74-0.55c-0.19-0.24-0.35-0.53-0.48-0.87
				c-0.13-0.34-0.27-0.71-0.41-1.12l-0.46-1.59c-0.64,0.64-1.36,1.26-2.18,1.88c-0.82,0.61-1.71,1.16-2.69,1.65
				c-0.98,0.48-2.03,0.87-3.15,1.17c-1.12,0.29-2.28,0.44-3.49,0.44c-2.15,0-4.21-0.27-6.18-0.81s-3.81-1.32-5.53-2.32
				c-1.71-1-3.27-2.21-4.66-3.61c-1.39-1.4-2.59-2.97-3.59-4.69c-1-1.72-1.78-3.58-2.32-5.58c-0.54-2-0.82-4.08-0.82-6.25
				c0-3.28,0.6-6.34,1.81-9.16c1.21-2.82,2.85-5.28,4.92-7.37c2.08-2.09,4.52-3.73,7.33-4.92s5.82-1.79,9.03-1.79
				c1.46,0,2.83,0.17,4.09,0.5c1.26,0.33,2.42,0.78,3.47,1.35c1.05,0.57,2,1.25,2.85,2.04c0.85,0.79,1.59,1.65,2.23,2.57l1.03-3.22
				c0.24-0.59,0.43-1.07,0.58-1.43c0.15-0.37,0.32-0.64,0.5-0.81c0.18-0.18,0.39-0.29,0.66-0.35c0.26-0.06,0.62-0.09,1.1-0.09h5.28
				c0.26,0,0.57,0.04,0.92,0.11s0.66,0.24,0.92,0.5c0.33,0.26,0.57,0.56,0.71,0.89c0.14,0.33,0.21,0.71,0.21,1.13V74.79z
				 M280.57,54.95c0,1.56,0.24,3.02,0.73,4.38c0.48,1.36,1.17,2.53,2.07,3.52c0.9,0.99,1.98,1.78,3.24,2.36
				c1.26,0.58,2.66,0.87,4.2,0.87c1.58,0,3.05-0.29,4.41-0.87c1.36-0.58,2.54-1.36,3.54-2.36s1.79-2.17,2.36-3.52
				c0.57-1.36,0.85-2.82,0.85-4.38c0-1.51-0.28-2.95-0.85-4.32c-0.57-1.37-1.35-2.57-2.36-3.61c-1-1.04-2.18-1.86-3.54-2.46
				c-1.36-0.6-2.83-0.9-4.41-0.9c-1.54,0-2.93,0.3-4.2,0.9c-1.26,0.6-2.34,1.42-3.24,2.46c-0.9,1.04-1.59,2.24-2.07,3.61
				C280.81,52,280.57,53.44,280.57,54.95z"/>
			<path class="st1" d="M325.41,17.26c0-0.99,0.21-1.69,0.64-2.11c0.43-0.41,1.09-0.62,1.98-0.62h8.22c0.83,0,1.49,0.21,2,0.62
				c0.51,0.41,0.76,1.12,0.76,2.11v6.91c0,0.28-0.07,0.59-0.2,0.92c-0.13,0.33-0.31,0.65-0.55,0.96c-0.24,0.31-0.53,0.56-0.87,0.76
				s-0.73,0.3-1.15,0.3h-8.22c-1.75,0-2.62-0.98-2.62-2.94V17.26z M325.41,35.18c0-0.76,0.21-1.4,0.64-1.95
				c0.43-0.54,1.09-0.81,1.98-0.81h8.11c0.28,0,0.59,0.07,0.92,0.19c0.33,0.13,0.64,0.32,0.92,0.57c0.28,0.25,0.53,0.54,0.73,0.87
				c0.2,0.33,0.3,0.71,0.3,1.13v39.5c0,0.9-0.25,1.58-0.74,2.04c-0.5,0.46-1.2,0.69-2.12,0.69h-8.11c-1.75,0-2.62-0.91-2.62-2.73
				V35.18z"/>
			<path class="st1" d="M349.93,33.05c0.31-0.26,0.63-0.43,0.97-0.5c0.34-0.07,0.67-0.11,0.97-0.11h5.35c0.43,0,0.79,0.08,1.1,0.23
				c0.31,0.15,0.57,0.36,0.78,0.62c0.21,0.26,0.38,0.55,0.51,0.88c0.13,0.33,0.25,0.67,0.37,1.02l0.74,3.11
				c0.35-0.73,0.93-1.48,1.72-2.26c0.79-0.78,1.77-1.48,2.94-2.12c1.17-0.64,2.52-1.16,4.06-1.57s3.25-0.62,5.14-0.62
				c2.69,0,5.09,0.52,7.21,1.55c2.11,1.04,3.91,2.45,5.38,4.24c1.48,1.79,2.6,3.88,3.37,6.27c0.77,2.39,1.15,4.95,1.15,7.66v23.2
				c0,0.9-0.19,1.58-0.58,2.04c-0.39,0.46-1.01,0.69-1.86,0.69h-8.18c-1.02,0-1.71-0.17-2.09-0.51c-0.38-0.34-0.57-1.01-0.57-2
				V51.83c0-1.02-0.23-1.98-0.69-2.89c-0.46-0.91-1.07-1.71-1.82-2.41s-1.61-1.25-2.57-1.65c-0.96-0.4-1.93-0.6-2.92-0.6
				c-0.85,0-1.72,0.19-2.6,0.57c-0.89,0.38-1.7,0.9-2.44,1.58c-0.74,0.67-1.37,1.46-1.88,2.37s-0.8,1.9-0.87,2.96v23.03
				c0,0.4-0.08,0.8-0.23,1.2c-0.15,0.4-0.38,0.71-0.69,0.92c-0.31,0.19-0.6,0.32-0.87,0.39c-0.27,0.07-0.58,0.11-0.94,0.11h-8.01
				c-1.02,0-1.75-0.25-2.2-0.74c-0.45-0.5-0.67-1.16-0.67-1.98V35.07c0-0.45,0.1-0.86,0.3-1.24c0.2-0.38,0.48-0.67,0.83-0.88
				L349.93,33.05z"/>
			<path class="st1" d="M401.65,17.26c0-0.99,0.21-1.69,0.64-2.11c0.42-0.41,1.09-0.62,1.98-0.62h8.22c0.83,0,1.49,0.21,2,0.62
				c0.51,0.41,0.76,1.12,0.76,2.11v6.91c0,0.28-0.07,0.59-0.19,0.92c-0.13,0.33-0.31,0.65-0.55,0.96c-0.24,0.31-0.53,0.56-0.87,0.76
				c-0.34,0.2-0.73,0.3-1.15,0.3h-8.22c-1.75,0-2.62-0.98-2.62-2.94V17.26z M401.65,35.18c0-0.76,0.21-1.4,0.64-1.95
				c0.42-0.54,1.09-0.81,1.98-0.81h8.11c0.28,0,0.59,0.07,0.92,0.19c0.33,0.13,0.64,0.32,0.92,0.57c0.28,0.25,0.53,0.54,0.73,0.87
				c0.2,0.33,0.3,0.71,0.3,1.13v39.5c0,0.9-0.25,1.58-0.74,2.04c-0.5,0.46-1.2,0.69-2.12,0.69h-8.11c-1.75,0-2.62-0.91-2.62-2.73
				V35.18z"/>
			<path class="st1" d="M426.16,33.05c0.31-0.26,0.63-0.43,0.97-0.5c0.34-0.07,0.67-0.11,0.97-0.11h5.35c0.42,0,0.79,0.08,1.1,0.23
				c0.31,0.15,0.57,0.36,0.78,0.62c0.21,0.26,0.38,0.55,0.51,0.88c0.13,0.33,0.25,0.67,0.37,1.02l0.74,3.11
				c0.35-0.73,0.93-1.48,1.72-2.26c0.79-0.78,1.77-1.48,2.94-2.12c1.17-0.64,2.52-1.16,4.06-1.57s3.25-0.62,5.14-0.62
				c2.69,0,5.09,0.52,7.21,1.55c2.11,1.04,3.91,2.45,5.38,4.24c1.48,1.79,2.6,3.88,3.37,6.27c0.77,2.39,1.15,4.95,1.15,7.66v23.2
				c0,0.9-0.2,1.58-0.58,2.04c-0.39,0.46-1.01,0.69-1.86,0.69h-8.18c-1.02,0-1.71-0.17-2.09-0.51c-0.38-0.34-0.57-1.01-0.57-2V51.83
				c0-1.02-0.23-1.98-0.69-2.89c-0.46-0.91-1.07-1.71-1.82-2.41s-1.61-1.25-2.57-1.65c-0.96-0.4-1.93-0.6-2.92-0.6
				c-0.85,0-1.72,0.19-2.6,0.57c-0.89,0.38-1.7,0.9-2.44,1.58c-0.74,0.67-1.37,1.46-1.88,2.37s-0.8,1.9-0.87,2.96v23.03
				c0,0.4-0.08,0.8-0.23,1.2c-0.15,0.4-0.38,0.71-0.69,0.92c-0.31,0.19-0.6,0.32-0.87,0.39c-0.27,0.07-0.58,0.11-0.94,0.11h-8.01
				c-1.02,0-1.75-0.25-2.2-0.74c-0.45-0.5-0.67-1.16-0.67-1.98V35.07c0-0.45,0.1-0.86,0.3-1.24s0.48-0.67,0.83-0.88L426.16,33.05z"
				/>
			<path class="st1" d="M510.5,75.85c0.17-0.47,0.27-0.99,0.32-1.56c0.05-0.57,0.07-1.16,0.07-1.77c0-0.21,0-0.37,0-0.48
				c0-0.11-0.01-0.19-0.02-0.27c-0.01-0.07-0.02-0.16-0.02-0.27s0-0.27,0-0.48c-0.68,0.73-1.38,1.45-2.09,2.16
				c-0.71,0.71-1.49,1.34-2.36,1.9c-0.86,0.56-1.84,1-2.92,1.35c-1.09,0.34-2.35,0.51-3.79,0.51c-3.19,0-6.14-0.54-8.86-1.63
				s-5.07-2.6-7.05-4.55c-1.98-1.95-3.53-4.28-4.64-7c-1.11-2.71-1.67-5.7-1.67-8.96c0-3.24,0.55-6.26,1.67-9.09
				c1.11-2.82,2.66-5.28,4.64-7.37c1.98-2.09,4.33-3.73,7.05-4.92c2.72-1.19,5.67-1.79,8.86-1.79c1.46,0,2.8,0.17,4,0.5
				c1.2,0.33,2.31,0.79,3.31,1.36s1.92,1.26,2.75,2.04c0.83,0.78,1.59,1.61,2.3,2.48l0.99-3.15c0.14-0.4,0.27-0.77,0.39-1.1
				c0.12-0.33,0.27-0.61,0.46-0.83c0.19-0.22,0.43-0.4,0.73-0.51c0.3-0.12,0.68-0.18,1.15-0.18h5.28c0.33,0,0.66,0.06,0.99,0.18
				c0.33,0.12,0.63,0.28,0.9,0.5c0.27,0.21,0.49,0.48,0.66,0.81c0.17,0.33,0.25,0.71,0.25,1.13v36.06c0,3.68-0.6,6.97-1.81,9.85
				c-1.2,2.88-2.85,5.31-4.94,7.3c-2.09,1.98-4.56,3.49-7.42,4.53c-2.86,1.04-5.93,1.56-9.21,1.56c-1.28,0-2.65-0.11-4.11-0.34
				c-1.46-0.22-2.92-0.56-4.38-1.01c-1.45-0.45-2.86-1.02-4.22-1.72s-2.56-1.51-3.59-2.43c-0.35-0.26-0.66-0.58-0.9-0.97
				c-0.25-0.39-0.37-0.82-0.37-1.29c0-0.59,0.22-1.22,0.67-1.88l3.37-4.64c0.33-0.35,0.64-0.62,0.92-0.8s0.59-0.27,0.92-0.27
				c0.52,0,1.17,0.28,1.95,0.85c0.59,0.57,1.27,1.02,2.04,1.36c0.77,0.34,1.56,0.61,2.37,0.81c0.82,0.2,1.62,0.33,2.41,0.39
				c0.79,0.06,1.51,0.09,2.14,0.09c1.06,0,2.17-0.14,3.33-0.42c1.16-0.28,2.24-0.7,3.24-1.26c1-0.55,1.89-1.23,2.66-2.04
				S510.22,76.89,510.5,75.85z M490.24,54.81c0,1.58,0.24,3.05,0.73,4.41c0.48,1.36,1.17,2.53,2.07,3.52
				c0.9,0.99,1.98,1.77,3.24,2.34c1.26,0.57,2.66,0.85,4.2,0.85c1.51,0,2.93-0.27,4.27-0.8c1.33-0.53,2.5-1.27,3.49-2.21
				s1.79-2.05,2.39-3.33c0.6-1.28,0.94-2.66,1.01-4.14v-1.17c-0.07-1.44-0.41-2.81-1.01-4.09c-0.6-1.29-1.4-2.42-2.39-3.4
				c-0.99-0.98-2.16-1.76-3.49-2.34c-1.33-0.58-2.76-0.87-4.27-0.87c-1.54,0-2.93,0.3-4.2,0.9c-1.26,0.6-2.34,1.41-3.24,2.43
				c-0.9,1.02-1.59,2.21-2.07,3.58C490.48,51.86,490.24,53.3,490.24,54.81z"/>
		</g>
	</g>
	<g>
		<g>
			<path class="st1" d="M414.03,98.58c0.11-0.08,0.21-0.13,0.31-0.15c0.1-0.02,0.17-0.03,0.23-0.03c0.13,0,0.26,0.03,0.37,0.08
				c0.11,0.05,0.22,0.17,0.34,0.35l1.32,1.99c0.04,0.06,0.08,0.13,0.11,0.21c0.04,0.08,0.05,0.14,0.05,0.19
				c0,0.18-0.06,0.33-0.17,0.44c-0.11,0.11-0.24,0.21-0.37,0.3c-0.64,0.45-1.35,0.81-2.12,1.08c-0.77,0.27-1.58,0.41-2.43,0.41
				c-0.71,0-1.39-0.09-2.05-0.27c-0.66-0.18-1.27-0.44-1.83-0.77s-1.08-0.74-1.56-1.2s-0.87-0.99-1.2-1.56
				c-0.33-0.57-0.59-1.19-0.77-1.86c-0.18-0.66-0.28-1.36-0.28-2.08s0.09-1.42,0.28-2.09c0.18-0.67,0.44-1.29,0.77-1.86
				c0.33-0.57,0.73-1.09,1.2-1.56s0.99-0.87,1.56-1.2s1.18-0.59,1.83-0.77c0.66-0.18,1.34-0.27,2.05-0.27
				c0.86,0,1.65,0.11,2.38,0.34c0.73,0.23,1.41,0.57,2.05,1.01l-0.04-0.04c0.17,0.1,0.31,0.22,0.41,0.36
				c0.1,0.14,0.15,0.31,0.15,0.51c0,0.14-0.05,0.29-0.14,0.44l-1.05,1.78c-0.22,0.38-0.49,0.58-0.8,0.58
				c-0.07,0-0.16-0.02-0.26-0.05s-0.22-0.1-0.34-0.18c-0.35-0.23-0.72-0.42-1.11-0.56c-0.4-0.15-0.82-0.22-1.27-0.22
				c-0.5,0-0.95,0.1-1.37,0.3c-0.42,0.2-0.77,0.47-1.07,0.82s-0.52,0.75-0.69,1.2s-0.25,0.94-0.25,1.44c0,0.52,0.08,1,0.25,1.46
				s0.39,0.84,0.69,1.17s0.65,0.59,1.07,0.78c0.42,0.19,0.87,0.29,1.37,0.29c0.45,0,0.87-0.08,1.26-0.24
				C413.3,99.03,413.67,98.83,414.03,98.58z"/>
			<path class="st1" d="M419.5,84.67c0-0.25,0.06-0.46,0.19-0.64s0.34-0.26,0.65-0.26h2.89c0.08,0,0.16,0.02,0.25,0.07
				c0.09,0.04,0.17,0.1,0.24,0.18c0.07,0.08,0.14,0.17,0.19,0.28c0.05,0.11,0.08,0.23,0.08,0.37v17.62c0,0.3-0.08,0.53-0.25,0.68
				s-0.39,0.23-0.65,0.23h-2.74c-0.31,0-0.52-0.08-0.65-0.23s-0.19-0.38-0.19-0.68V84.67z"/>
			<path class="st1" d="M442.72,102.32c0,0.13-0.02,0.26-0.07,0.38c-0.05,0.12-0.12,0.22-0.24,0.29c-0.09,0.09-0.19,0.14-0.31,0.17
				s-0.22,0.04-0.31,0.04h-2.32c-0.17,0-0.3-0.02-0.4-0.06c-0.1-0.04-0.18-0.1-0.25-0.18c-0.06-0.08-0.12-0.17-0.16-0.29
				c-0.04-0.11-0.09-0.24-0.14-0.37l-0.15-0.53c-0.21,0.21-0.45,0.42-0.73,0.62c-0.27,0.2-0.57,0.39-0.9,0.55
				c-0.33,0.16-0.68,0.29-1.05,0.39c-0.37,0.1-0.76,0.15-1.16,0.15c-0.71,0-1.4-0.09-2.06-0.27s-1.27-0.44-1.84-0.77
				c-0.57-0.33-1.09-0.74-1.55-1.2s-0.86-0.99-1.2-1.56c-0.33-0.57-0.59-1.19-0.77-1.86c-0.18-0.66-0.27-1.36-0.27-2.08
				c0-1.09,0.2-2.11,0.6-3.05c0.4-0.94,0.95-1.76,1.64-2.45c0.69-0.7,1.51-1.24,2.44-1.64c0.94-0.4,1.94-0.6,3.01-0.6
				c0.49,0,0.94,0.06,1.36,0.17c0.42,0.11,0.81,0.26,1.16,0.45c0.35,0.19,0.67,0.42,0.95,0.68c0.28,0.26,0.53,0.55,0.74,0.85
				l0.34-1.07c0.08-0.2,0.14-0.36,0.19-0.48c0.05-0.12,0.11-0.21,0.17-0.27c0.06-0.06,0.13-0.1,0.22-0.12
				c0.09-0.02,0.21-0.03,0.37-0.03h1.76c0.09,0,0.19,0.01,0.31,0.04c0.12,0.02,0.22,0.08,0.31,0.17c0.11,0.09,0.19,0.18,0.24,0.29
				c0.05,0.11,0.07,0.24,0.07,0.38V102.32z M431.1,95.72c0,0.52,0.08,1,0.24,1.46s0.39,0.84,0.69,1.17s0.66,0.59,1.08,0.78
				s0.89,0.29,1.4,0.29c0.53,0,1.02-0.1,1.47-0.29c0.45-0.19,0.84-0.45,1.18-0.78s0.6-0.72,0.78-1.17s0.28-0.94,0.28-1.46
				c0-0.5-0.09-0.98-0.28-1.44s-0.45-0.86-0.78-1.2s-0.73-0.62-1.18-0.82c-0.45-0.2-0.94-0.3-1.47-0.3c-0.51,0-0.98,0.1-1.4,0.3
				c-0.42,0.2-0.78,0.47-1.08,0.82s-0.53,0.75-0.69,1.2S431.1,95.22,431.1,95.72z"/>
			<path class="st1" d="M448.28,98.54c0.21,0.21,0.44,0.39,0.69,0.54c0.25,0.15,0.49,0.26,0.71,0.35c0.23,0.09,0.43,0.16,0.6,0.19
				c0.17,0.04,0.29,0.06,0.35,0.06c0.15,0,0.34-0.01,0.57-0.02c0.23-0.01,0.45-0.05,0.67-0.11c0.21-0.06,0.39-0.16,0.55-0.29
				s0.23-0.32,0.23-0.57c0-0.22-0.04-0.39-0.13-0.52s-0.21-0.24-0.38-0.33c-0.17-0.09-0.37-0.17-0.61-0.24
				c-0.24-0.07-0.51-0.15-0.81-0.25c-0.94-0.25-1.72-0.55-2.33-0.91c-0.61-0.35-1.1-0.75-1.46-1.19s-0.61-0.91-0.75-1.41
				s-0.21-1.03-0.21-1.59c0-0.65,0.13-1.25,0.39-1.78c0.26-0.53,0.63-0.99,1.11-1.37c0.48-0.38,1.05-0.68,1.72-0.88
				c0.67-0.21,1.41-0.31,2.23-0.31c0.5,0,0.96,0.04,1.39,0.12c0.43,0.08,0.84,0.21,1.24,0.39c0.39,0.18,0.78,0.41,1.15,0.68
				c0.37,0.28,0.75,0.61,1.11,1c0.13,0.16,0.2,0.3,0.21,0.44c0,0.14-0.08,0.29-0.27,0.44c-0.31,0.25-0.6,0.5-0.88,0.74
				c-0.28,0.24-0.57,0.52-0.87,0.81c-0.09,0.08-0.19,0.13-0.28,0.15s-0.18,0.02-0.27-0.01c-0.09-0.02-0.17-0.06-0.25-0.12
				c-0.08-0.06-0.15-0.12-0.21-0.2c-0.28-0.31-0.59-0.51-0.94-0.62c-0.35-0.11-0.68-0.16-0.99-0.16c-0.39,0-0.69,0.07-0.92,0.2
				c-0.23,0.13-0.33,0.34-0.32,0.61c0.02,0.2,0.09,0.36,0.23,0.48s0.31,0.21,0.51,0.28c0.2,0.07,0.41,0.13,0.64,0.17
				c0.22,0.04,0.43,0.09,0.62,0.15c0.71,0.23,1.36,0.48,1.95,0.74c0.59,0.27,1.1,0.6,1.53,0.99c0.43,0.39,0.77,0.85,1.01,1.4
				c0.24,0.54,0.36,1.2,0.36,1.98s-0.16,1.47-0.47,2.09s-0.74,1.13-1.28,1.54c-0.54,0.42-1.19,0.74-1.93,0.96
				c-0.74,0.22-1.54,0.33-2.4,0.33c-0.49,0-0.98-0.04-1.49-0.13s-0.99-0.23-1.46-0.42c-0.47-0.19-0.92-0.44-1.34-0.74
				c-0.42-0.3-0.8-0.67-1.13-1.1c-0.09-0.11-0.15-0.23-0.19-0.35c-0.04-0.12-0.06-0.24-0.06-0.36s0.03-0.23,0.07-0.32
				c0.04-0.1,0.11-0.18,0.21-0.25l1.52-1.52c0.19-0.16,0.36-0.21,0.5-0.17C447.87,98.18,448.05,98.32,448.28,98.54z"/>
			<path class="st1" d="M462.43,98.54c0.21,0.21,0.44,0.39,0.69,0.54s0.49,0.26,0.71,0.35c0.23,0.09,0.43,0.16,0.6,0.19
				s0.29,0.06,0.35,0.06c0.15,0,0.34-0.01,0.57-0.02c0.23-0.01,0.45-0.05,0.67-0.11c0.21-0.06,0.39-0.16,0.55-0.29
				s0.23-0.32,0.23-0.57c0-0.22-0.04-0.39-0.13-0.52c-0.09-0.13-0.21-0.24-0.38-0.33c-0.17-0.09-0.37-0.17-0.61-0.24
				c-0.24-0.07-0.51-0.15-0.81-0.25c-0.94-0.25-1.72-0.55-2.33-0.91c-0.61-0.35-1.1-0.75-1.46-1.19c-0.36-0.44-0.61-0.91-0.75-1.41
				s-0.21-1.03-0.21-1.59c0-0.65,0.13-1.25,0.39-1.78c0.26-0.53,0.63-0.99,1.11-1.37c0.48-0.38,1.05-0.68,1.72-0.88
				c0.67-0.21,1.41-0.31,2.23-0.31c0.5,0,0.96,0.04,1.39,0.12c0.43,0.08,0.84,0.21,1.24,0.39c0.39,0.18,0.78,0.41,1.15,0.68
				c0.37,0.28,0.75,0.61,1.11,1c0.13,0.16,0.2,0.3,0.21,0.44c0,0.14-0.08,0.29-0.27,0.44c-0.31,0.25-0.6,0.5-0.88,0.74
				c-0.28,0.24-0.57,0.52-0.87,0.81c-0.09,0.08-0.19,0.13-0.28,0.15c-0.09,0.02-0.18,0.02-0.27-0.01c-0.09-0.02-0.17-0.06-0.25-0.12
				c-0.08-0.06-0.15-0.12-0.21-0.2c-0.28-0.31-0.59-0.51-0.94-0.62c-0.35-0.11-0.68-0.16-0.99-0.16c-0.39,0-0.69,0.07-0.92,0.2
				c-0.23,0.13-0.33,0.34-0.32,0.61c0.02,0.2,0.09,0.36,0.23,0.48s0.31,0.21,0.51,0.28c0.2,0.07,0.41,0.13,0.64,0.17
				c0.22,0.04,0.43,0.09,0.62,0.15c0.71,0.23,1.36,0.48,1.95,0.74c0.59,0.27,1.1,0.6,1.53,0.99c0.43,0.39,0.77,0.85,1.01,1.4
				c0.24,0.54,0.36,1.2,0.36,1.98s-0.16,1.47-0.47,2.09s-0.74,1.13-1.28,1.54c-0.54,0.42-1.18,0.74-1.93,0.96s-1.54,0.33-2.4,0.33
				c-0.49,0-0.98-0.04-1.49-0.13s-0.99-0.23-1.46-0.42c-0.47-0.19-0.92-0.44-1.34-0.74s-0.8-0.67-1.13-1.1
				c-0.09-0.11-0.15-0.23-0.2-0.35c-0.04-0.12-0.06-0.24-0.06-0.36s0.03-0.23,0.07-0.32c0.04-0.1,0.11-0.18,0.21-0.25l1.52-1.52
				c0.19-0.16,0.36-0.21,0.5-0.17C462.02,98.18,462.21,98.32,462.43,98.54z"/>
		</g>
	</g>
</g>
</svg>
